<svg id="Capa_1" enable-background="new 0 0 512.014 512.014" height="512" viewBox="0 0 512.014 512.014" width="512" xmlns="http://www.w3.org/2000/svg"><path d="m386.09 82.058h30v91.441h-30z" fill="#47568c"/><path d="m80.905 249.286c-44.558 0-80.809 36.25-80.809 80.809 0 23.109 12.161 50.183 36.146 80.468 17.033 21.509 33.901 36.808 34.611 37.449l10.052 9.075 10.052-9.075c.71-.641 17.578-15.94 34.611-37.449 23.984-30.286 36.146-57.359 36.146-80.468 0-44.558-36.251-80.809-80.809-80.809z" fill="#ff6c6c"/><path d="m80.905 249.286v207.8l10.052-9.075c.71-.641 17.578-15.94 34.611-37.449 23.984-30.286 36.146-57.359 36.146-80.468 0-44.557-36.251-80.808-80.809-80.808z" fill="#ff3943"/><path d="m80.905 353.798c-13.07 0-23.704-10.633-23.704-23.704s10.634-23.704 23.704-23.704 23.704 10.634 23.704 23.704-10.633 23.704-23.704 23.704z" fill="#47568c"/><path d="m511.917 0h-125.827v97.058h125.827l-23.815-48.529z" fill="#ff6c6c"/><path d="m381.506 322.915h-87.172c-27.175 0-49.282-22.108-49.282-49.282s22.107-49.282 49.282-49.282h92.317c3.75 3.611 8.835 5.845 14.439 5.845 11.494 0 20.845-9.351 20.845-20.845s-9.351-20.845-20.845-20.845c-5.604 0-10.689 2.234-14.439 5.845h-92.317c-43.717 0-79.282 35.565-79.282 79.282s35.565 79.282 79.282 79.282h87.172c33.98 0 61.626 27.646 61.626 61.627s-27.646 61.626-61.626 61.626h-286.161c-3.75-3.611-8.835-5.845-14.439-5.845-11.494 0-20.845 9.351-20.845 20.845s9.351 20.845 20.845 20.845c5.604 0 10.689-2.234 14.439-5.845h286.161c50.522 0 91.626-41.104 91.626-91.627 0-50.522-41.104-91.626-91.626-91.626z" fill="#fcbf29"/><path d="m294.334 224.352h92.317c3.75 3.611 8.835 5.845 14.439 5.845 11.494 0 20.845-9.351 20.845-20.845s-9.351-20.845-20.845-20.845c-5.604 0-10.689 2.234-14.439 5.845h-92.317c-9.755 0-19.099 1.781-27.738 5.018v33.554c7.907-5.405 17.458-8.572 27.738-8.572z" fill="#ffa918"/><path d="m381.506 322.915h-87.172c-10.28 0-19.831-3.168-27.738-8.572v33.554c8.639 3.237 17.983 5.018 27.738 5.018h87.172c33.98 0 61.626 27.646 61.626 61.627s-27.646 61.626-61.626 61.626h-114.91v30h114.91c50.522 0 91.626-41.104 91.626-91.627 0-50.522-41.104-91.626-91.626-91.626z" fill="#ffa918"/><path d="m80.905 306.391v47.408c13.07 0 23.704-10.633 23.704-23.704s-10.633-23.704-23.704-23.704z" fill="#2c3b73"/><path d="m488.102 48.529 23.815-48.529h-68.055v97.058h68.055z" fill="#ff3943"/></svg>